<?xml version="1.0" encoding="UTF-8" standalone="no"?>
<svg
   xmlns:dc="http://purl.org/dc/elements/1.1/"
   xmlns:cc="http://creativecommons.org/ns#"
   xmlns:rdf="http://www.w3.org/1999/02/22-rdf-syntax-ns#"
   xmlns:svg="http://www.w3.org/2000/svg"
   xmlns="http://www.w3.org/2000/svg"
   xmlns:sodipodi="http://sodipodi.sourceforge.net/DTD/sodipodi-0.dtd"
   xmlns:inkscape="http://www.inkscape.org/namespaces/inkscape"
   inkscape:version="1.0 (6e3e5246a0, 2020-05-07)"
   sodipodi:docname="github.svg"
   id="svg4"
   version="1.1"
   height="16"
   width="16"
   viewBox="0 0 16 16">
  <metadata
     id="metadata10">
    <rdf:RDF>
      <cc:Work
         rdf:about="">
        <dc:format>image/svg+xml</dc:format>
        <dc:type
           rdf:resource="http://purl.org/dc/dcmitype/StillImage" />
        <dc:title></dc:title>
      </cc:Work>
    </rdf:RDF>
  </metadata>
  <defs
     id="defs8" />
  <sodipodi:namedview
     inkscape:current-layer="svg4"
     inkscape:window-maximized="1"
     inkscape:window-y="34"
     inkscape:window-x="0"
     inkscape:cy="7.8871915"
     inkscape:cx="8"
     inkscape:zoom="53.1875"
     showgrid="false"
     id="namedview6"
     inkscape:window-height="1018"
     inkscape:window-width="1920"
     inkscape:pageshadow="2"
     inkscape:pageopacity="0"
     guidetolerance="10"
     gridtolerance="10"
     objecttolerance="10"
     borderopacity="1"
     bordercolor="#666666"
     pagecolor="#ffffff" />
  <path
     id="path2"
     d="M8 0C3.58 0 0 3.58 0 8c0 3.54 2.29 6.53 5.47 7.59.4.07.55-.17.55-.38 0-.19-.01-.82-.01-1.49-2.01.37-2.53-.49-2.69-.94-.09-.23-.48-.94-.82-1.13-.28-.15-.68-.52-.01-.53.63-.01 1.08.58 1.23.82.72 1.21 1.87.87 2.33.66.07-.52.28-.87.51-1.07-1.78-.2-3.64-.89-3.64-3.95 0-.87.31-1.59.82-2.15-.08-.2-.36-1.02.08-2.12 0 0 .67-.21 2.2.82.64-.18 1.32-.27 2-.27.68 0 1.36.09 2 .27 1.53-1.04 2.2-.82 2.2-.82.44 1.1.16 1.92.08 2.12.51.56.82 1.27.82 2.15 0 3.07-1.87 3.75-3.65 3.95.29.25.54.73.54 1.48 0 1.07-.01 1.93-.01 2.2 0 .21.15.46.55.38A8.013 8.013 0 0016 8c0-4.42-3.58-8-8-8z"
     fill-rule="evenodd" />
  <path
     id="path835"
     d="M 5.3396005,15.532581 C 4.1383314,15.110155 2.9812676,14.347375 2.1293812,13.416284 1.049947,12.236488 0.3694685,10.839008 0.11271751,9.2747155 -0.00639858,8.5489837 -0.016354,7.6675087 0.08600487,6.9095182 0.45234713,4.196671 2.230541,1.8258676 4.7379832,0.70719914 7.0791073,-0.33726831 9.7594726,-0.20222744 11.976892,1.0719064 c 2.376625,1.3656143 3.905011,3.8826656 4.001331,6.5896682 0.02909,0.8174513 -0.03746,1.4883307 -0.222879,2.2468471 -0.218904,0.8955113 -0.616294,1.7931283 -1.131986,2.5569133 -0.875402,1.296543 -2.101776,2.304071 -3.543253,2.910958 -0.617225,0.259863 -0.779454,0.277006 -0.960761,0.101528 -0.111996,-0.108396 -0.112192,-0.111062 -0.102229,-1.388551 0.0063,-0.809059 0.0024,-1.221744 -0.01285,-1.367697 C 9.954737,12.248549 9.8008506,11.85952 9.5626563,11.60517 c -0.036315,-0.03878 -0.055883,-0.07056 -0.043484,-0.07063 0.062039,-3.38e-4 0.5412747,-0.07941 0.7295747,-0.120376 1.101366,-0.23961 1.86281,-0.724709 2.326373,-1.4820823 C 12.961346,9.3010659 13.146647,8.4616299 13.117506,7.4750118 13.10558,7.0712517 13.07581,6.8838191 12.972443,6.5616921 12.85744,6.2033062 12.652564,5.8306536 12.41191,5.542131 L 12.31424,5.4250376 12.35038,5.316514 c 0.08609,-0.2585128 0.105598,-0.4105331 0.104425,-0.8135763 -0.0013,-0.4352107 -0.02831,-0.6119639 -0.151462,-0.9898925 -0.07667,-0.2352741 -0.07296,-0.2321991 -0.279732,-0.2321991 -0.437448,0 -1.097591,0.2588709 -1.810799,0.7100939 L 10.01905,4.1135287 9.7239786,4.0462656 C 8.5620012,3.7813866 7.3308881,3.788929 6.2214221,4.0677238 l -0.20143,0.050617 -0.062875,-0.043988 C 5.8400904,3.9924798 5.4017638,3.7353953 5.2433059,3.6556928 4.8368028,3.4512265 4.3760472,3.3065273 4.0708792,3.2874952 3.8196601,3.2718276 3.8134503,3.276116 3.734748,3.5196253 3.5418361,4.1165046 3.5201801,4.778005 3.6772714,5.2752869 l 0.046707,0.1478543 -0.1165695,0.1462437 c -0.326598,0.4097378 -0.5347838,0.8581548 -0.640286,1.3791289 -0.039234,0.1937388 -0.043382,0.263725 -0.042263,0.7130608 0.00134,0.5383367 0.025157,0.7861043 0.1135857,1.1816363 0.2288333,1.0235463 0.7822676,1.7608781 1.6480859,2.1957181 0.3399525,0.170734 0.7385204,0.303566 1.1721659,0.390651 0.2025993,0.04069 0.5944488,0.103492 0.6534789,0.104741 0.00896,1.9e-4 -0.012674,0.0324 -0.048072,0.07158 -0.1945831,0.21538 -0.3641277,0.580141 -0.4018574,0.864562 -0.00682,0.0514 -0.017797,0.101291 -0.024396,0.110862 -0.019616,0.02845 -0.2063975,0.0991 -0.3974272,0.150335 -0.243657,0.06535 -0.5875,0.08038 -0.8098408,0.0354 C 4.3844159,12.676805 4.0611811,12.433103 3.7325661,11.939217 3.4657694,11.53824 3.1495005,11.268294 2.8247457,11.164363 c -0.1158479,-0.03707 -0.184192,-0.04649 -0.3349551,-0.04612 -0.3034451,7.3e-4 -0.4191872,0.07028 -0.3585344,0.21544 0.031486,0.07536 0.2055472,0.236222 0.3369469,0.311402 0.2469044,0.141264 0.571403,0.567942 0.78826,1.03647 0.1570205,0.339249 0.2093247,0.432635 0.3122389,0.55748 0.2340238,0.283896 0.6360422,0.484695 1.1034484,0.551148 0.2848036,0.04049 0.915379,0.017 1.2552418,-0.04675 l 0.064194,-0.01204 0.011481,0.753373 c 0.012862,0.844049 0.00858,0.884411 -0.1055442,0.995025 -0.068285,0.06618 -0.2026982,0.116105 -0.3117917,0.115799 -0.037134,-1.13e-4 -0.1478932,-0.02845 -0.2461305,-0.063 z"
     style="fill:#27a644;stroke-width:0.0188014;fill-opacity:1" />
</svg>
