<?xml version="1.0" encoding="UTF-8" standalone="no"?>
<svg
   xmlns:dc="http://purl.org/dc/elements/1.1/"
   xmlns:cc="http://creativecommons.org/ns#"
   xmlns:rdf="http://www.w3.org/1999/02/22-rdf-syntax-ns#"
   xmlns:svg="http://www.w3.org/2000/svg"
   xmlns="http://www.w3.org/2000/svg"
   xmlns:sodipodi="http://sodipodi.sourceforge.net/DTD/sodipodi-0.dtd"
   xmlns:inkscape="http://www.inkscape.org/namespaces/inkscape"
   inkscape:version="1.0 (6e3e5246a0, 2020-05-07)"
   sodipodi:docname="law.svg"
   id="svg4"
   version="1.1"
   height="24"
   width="24"
   viewBox="0 0 24 24">
  <metadata
     id="metadata10">
    <rdf:RDF>
      <cc:Work
         rdf:about="">
        <dc:format>image/svg+xml</dc:format>
        <dc:type
           rdf:resource="http://purl.org/dc/dcmitype/StillImage" />
        <dc:title></dc:title>
      </cc:Work>
    </rdf:RDF>
  </metadata>
  <defs
     id="defs8" />
  <sodipodi:namedview
     inkscape:current-layer="svg4"
     inkscape:window-maximized="1"
     inkscape:window-y="34"
     inkscape:window-x="0"
     inkscape:cy="11.830787"
     inkscape:cx="12"
     inkscape:zoom="35.458333"
     showgrid="false"
     id="namedview6"
     inkscape:window-height="1018"
     inkscape:window-width="1920"
     inkscape:pageshadow="2"
     inkscape:pageopacity="0"
     guidetolerance="10"
     gridtolerance="10"
     objecttolerance="10"
     borderopacity="1"
     bordercolor="#666666"
     pagecolor="#ffffff" />
  <path
     id="path2"
     d="M12.75 2.75a.75.75 0 00-1.5 0V4.5H9.276a1.75 1.75 0 00-.985.303L6.596 5.957A.25.25 0 016.455 6H2.353a.75.75 0 100 1.5H3.93L.563 15.18a.762.762 0 00.21.88c.08.064.161.125.309.221.186.121.452.278.792.433.68.311 1.662.62 2.876.62a6.919 6.919 0 002.876-.62c.34-.155.606-.312.792-.433.15-.097.23-.158.31-.223a.75.75 0 00.209-.878L5.569 7.5h.886c.351 0 .694-.106.984-.303l1.696-1.154A.25.25 0 019.275 6h1.975v14.5H6.763a.75.75 0 000 1.5h10.474a.75.75 0 000-1.5H12.75V6h1.974c.05 0 .1.015.14.043l1.697 1.154c.29.197.633.303.984.303h.886l-3.368 7.68a.75.75 0 00.23.896c.012.009 0 0 .002 0a3.154 3.154 0 00.31.206c.185.112.45.256.79.4a7.343 7.343 0 002.855.568 7.343 7.343 0 002.856-.569c.338-.143.604-.287.79-.399a3.5 3.5 0 00.31-.206.75.75 0 00.23-.896L20.07 7.5h1.578a.75.75 0 000-1.5h-4.102a.25.25 0 01-.14-.043l-1.697-1.154a1.75 1.75 0 00-.984-.303H12.75V2.75zM2.193 15.198a5.418 5.418 0 002.557.635 5.418 5.418 0 002.557-.635L4.75 9.368l-2.557 5.83zm14.51-.024c.082.04.174.083.275.126.53.223 1.305.45 2.272.45a5.846 5.846 0 002.547-.576L19.25 9.367l-2.547 5.807z"
     fill-rule="evenodd" />
  <path
     id="path835"
     d="m 6.5709104,21.957345 c -0.3143769,-0.09628 -0.5344191,-0.387403 -0.5344191,-0.707051 0,-0.283265 0.1671869,-0.538681 0.4358941,-0.665928 l 0.1410106,-0.06678 2.319624,-2.82e-4 2.319624,-2.82e-4 V 13.254981 5.9929365 H 10.215491 9.1783389 L 8.2624949,6.6168068 C 7.7587809,6.9599351 7.2693941,7.2774405 7.1749689,7.3223741 6.9005598,7.4529552 6.6772507,7.4866105 6.081589,7.487159 5.6600235,7.4875482 5.5526662,7.495169 5.5636952,7.523906 c 0.00765,0.019941 0.7790871,1.780811 1.7142994,3.913043 1.6314343,3.71958 1.7003735,3.883648 1.7000706,4.045999 -5.894e-4,0.315306 -0.1383421,0.499009 -0.5996988,0.799736 C 7.2662851,17.007576 5.6979841,17.403137 4.3298186,17.303822 3.3534357,17.232959 2.5484914,17.022173 1.7344301,16.624196 1.3218438,16.422491 0.83726564,16.110009 0.70857544,15.96267 0.54684929,15.777507 0.48010464,15.534836 0.53491672,15.331279 0.55205649,15.267627 1.3218633,13.492637 2.2455986,11.386857 3.1693338,9.2810775 3.9314349,7.5429682 3.9391567,7.5243923 3.9498464,7.4986765 3.7389603,7.4885827 3.0553291,7.4820891 2.1912942,7.473882 2.1530682,7.4712104 2.0408615,7.4111949 1.5047201,7.1244316 1.4803934,6.4166786 1.9962553,6.1134374 L 2.1292597,6.0352526 4.3431257,6.0211516 6.5569918,6.0070505 7.4799023,5.3781061 C 8.4106976,4.7437885 8.6333282,4.6157877 8.906206,4.5580572 9.001931,4.5378055 9.4499382,4.5264395 10.152464,4.5264395 h 1.09681 l 0.0087,-0.9659225 0.0087,-0.9659224 0.08116,-0.1652809 C 11.472693,2.1751645 11.719158,2.0207424 12,2.0207424 c 0.280842,0 0.527307,0.1544221 0.652099,0.4085713 l 0.08116,0.1652809 0.0087,0.9659224 0.0087,0.9659225 h 1.09681 c 0.702526,0 1.150533,0.011366 1.246258,0.031618 0.27358,0.057879 0.499247,0.1875973 1.427793,0.8207244 l 0.921421,0.6282689 2.213866,0.014101 c 2.021117,0.012873 2.221552,0.018309 2.302142,0.062431 0.328134,0.1796475 0.488556,0.523552 0.394658,0.8460483 -0.05942,0.2040671 -0.183699,0.3625342 -0.361647,0.4611147 l -0.149489,0.082815 -0.897867,0.00853 c -0.68372,0.00649 -0.894488,0.016584 -0.8837,0.042303 0.0078,0.018576 0.771465,1.759744 1.69705,3.8692632 0.925585,2.109518 1.69635,3.898942 1.712811,3.976498 0.03958,0.186489 -0.02311,0.408492 -0.160779,0.569324 -0.252156,0.294588 -1.187758,0.767366 -1.96248,0.99168 -0.75175,0.217664 -1.287701,0.293315 -2.085528,0.29438 -1.190112,0.0016 -2.241192,-0.23886 -3.245675,-0.742493 -0.76816,-0.385145 -0.99281,-0.611197 -0.993877,-1.000083 -4.45e-4,-0.162477 0.06713,-0.323327 1.697833,-4.041087 0.934063,-2.1295318 1.705405,-3.8904014 1.714094,-3.9130443 0.0135,-0.035183 -0.06152,-0.04124 -0.516009,-0.041658 -0.595662,-5.5e-4 -0.818971,-0.034204 -1.09338,-0.164785 -0.09442,-0.044934 -0.583812,-0.3624389 -1.087526,-0.7055673 L 14.821661,5.9929495 h -1.037152 -1.037153 v 7.2620445 7.262045 l 2.319624,2.82e-4 2.319624,2.82e-4 0.141011,0.06678 c 0.565959,0.268012 0.582075,1.024678 0.0282,1.324098 l -0.112809,0.06098 -5.400705,0.0048 c -2.9703876,0.0026 -5.4325143,-0.005 -5.4713926,-0.01688 z M 5.6827262,15.770585 C 6.2221915,15.667901 6.7295865,15.503546 7.1257283,15.30317 L 7.3278374,15.20094 6.0491557,12.28653 C 5.3458807,10.683604 4.7635124,9.3651576 4.7550038,9.3566487 c -0.00851,-0.00851 -0.027429,0.014845 -0.042044,0.051896 -0.014615,0.037051 -0.5919142,1.3554973 -1.2828863,2.9298803 l -1.2563128,2.862515 0.2340082,0.117846 c 0.418098,0.210554 0.9860023,0.383764 1.5546283,0.47416 0.3337258,0.05305 1.3967179,0.03924 1.720329,-0.02236 z m 14.2851108,-0.04935 c 0.548094,-0.068 1.205409,-0.246148 1.645388,-0.445933 0.151355,-0.06873 0.190717,-0.09881 0.179994,-0.137566 -0.0075,-0.02728 -0.562689,-1.29966 -1.233647,-2.82751 -0.670958,-1.527849 -1.23873,-2.8219651 -1.261714,-2.8758126 l -0.04179,-0.097905 -0.03624,0.069703 c -0.131308,0.2525866 -2.524541,5.7572296 -2.511925,5.7776436 0.02587,0.04186 0.487597,0.225783 0.820394,0.326797 0.278591,0.08456 0.791039,0.191444 1.056893,0.22044 0.223578,0.02438 1.160487,0.0177 1.382643,-0.0099 z"
     style="fill:#27a644;fill-opacity:0.99607843;stroke-width:0.0282021" />
</svg>
