<?xml version="1.0" encoding="UTF-8" standalone="no"?>
<svg
   xmlns:dc="http://purl.org/dc/elements/1.1/"
   xmlns:cc="http://creativecommons.org/ns#"
   xmlns:rdf="http://www.w3.org/1999/02/22-rdf-syntax-ns#"
   xmlns:svg="http://www.w3.org/2000/svg"
   xmlns="http://www.w3.org/2000/svg"
   xmlns:sodipodi="http://sodipodi.sourceforge.net/DTD/sodipodi-0.dtd"
   xmlns:inkscape="http://www.inkscape.org/namespaces/inkscape"
   inkscape:version="1.0 (6e3e5246a0, 2020-05-07)"
   sodipodi:docname="mail.svg"
   id="svg4"
   version="1.1"
   height="24"
   width="24"
   viewBox="0 0 24 24">
  <metadata
     id="metadata10">
    <rdf:RDF>
      <cc:Work
         rdf:about="">
        <dc:format>image/svg+xml</dc:format>
        <dc:type
           rdf:resource="http://purl.org/dc/dcmitype/StillImage" />
        <dc:title></dc:title>
      </cc:Work>
    </rdf:RDF>
  </metadata>
  <defs
     id="defs8" />
  <sodipodi:namedview
     inkscape:current-layer="svg4"
     inkscape:window-maximized="1"
     inkscape:window-y="34"
     inkscape:window-x="0"
     inkscape:cy="11.830787"
     inkscape:cx="12"
     inkscape:zoom="35.458333"
     showgrid="false"
     id="namedview6"
     inkscape:window-height="1018"
     inkscape:window-width="1920"
     inkscape:pageshadow="2"
     inkscape:pageopacity="0"
     guidetolerance="10"
     gridtolerance="10"
     objecttolerance="10"
     borderopacity="1"
     bordercolor="#666666"
     pagecolor="#ffffff" />
  <path
     id="path2"
     d="M1.75 3A1.75 1.75 0 000 4.75v14c0 .966.784 1.75 1.75 1.75h20.5A1.75 1.75 0 0024 18.75v-14A1.75 1.75 0 0022.25 3H1.75zM1.5 4.75a.25.25 0 01.25-.25h20.5a.25.25 0 01.25.25v.852l-10.36 7a.25.25 0 01-.28 0l-10.36-7V4.75zm0 2.662V18.75c0 .138.112.25.25.25h20.5a.25.25 0 00.25-.25V7.412l-9.52 6.433c-.592.4-1.368.4-1.96 0L1.5 7.412z"
     fill-rule="evenodd" />
  <path
     id="path835"
     d="M 1.3882445,20.445918 C 0.89030879,20.337777 0.42349503,19.970937 0.19967405,19.511893 -0.00242143,19.097407 0.01410106,19.788827 0.01410106,11.746181 c 0,-6.9318949 0.0021604,-7.2414943 0.05175608,-7.4171563 C 0.20389683,3.8401049 0.55830343,3.4086293 0.99329646,3.199905 1.4314196,2.9896788 0.53608566,3.0054931 12,3.0054931 c 8.741248,0 10.356028,0.00607 10.544346,0.039629 0.654172,0.1165812 1.203497,0.6240508 1.389797,1.2839024 0.0496,0.175662 0.05176,0.4852614 0.05176,7.4171565 0,6.750932 -0.0032,7.245524 -0.04845,7.408834 -0.183233,0.661878 -0.693836,1.155517 -1.335928,1.291543 -0.282552,0.05986 -20.9375853,0.05924 -21.2132815,-6.4e-4 z m 21.0489805,-1.516821 0.06806,-0.07913 V 13.12651 c 0,-3.1479011 -0.005,-5.7234568 -0.01106,-5.7234568 -0.0061,0 -2.154026,1.4488828 -4.773208,3.2197398 -2.619182,1.770856 -4.84464,3.262064 -4.945463,3.313795 -0.464863,0.238515 -1.030828,0.24827 -1.508813,0.026 C 11.189189,13.926531 8.9642408,12.435881 6.322415,10.65004 3.6805895,8.8641984 1.5136094,7.4030552 1.5069039,7.4030552 c -0.00671,0 -0.012192,2.5734394 -0.012192,5.7187538 0,5.206925 0.00406,5.724546 0.045321,5.783459 0.024926,0.03559 0.072518,0.07571 0.1057579,0.08915 0.033809,0.01368 4.6123088,0.0221 10.3919042,0.01913 l 10.331467,-0.0053 z M 17.303976,9.1342779 22.505288,5.6199072 V 5.1282957 c 0,-0.4843552 -0.001,-0.4926333 -0.06922,-0.560835 l -0.06922,-0.069223 H 12 1.6331589 l -0.069877,0.069877 c -0.069715,0.069714 -0.069859,0.071024 -0.062173,0.5646256 l 0.0077,0.4947489 5.1891892,3.5090624 c 4.5976219,3.1090294 5.2014719,3.5092354 5.2969259,3.5105804 0.09742,0.0014 0.605962,-0.335118 5.309048,-3.5128535 z"
     style="fill:#27a644;fill-opacity:0.99607843;stroke-width:0.0282021" />
</svg>
